<mxfile>
    <diagram id="wX0M2i4DLkPoQWqwpA1D" name="Page-1">
        <mxGraphModel dx="564" dy="478" grid="1" gridSize="10" guides="1" tooltips="1" connect="1" arrows="1" fold="1" page="1" pageScale="1" pageWidth="850" pageHeight="1100" background="#ffffff" math="0" shadow="0">
            <root>
                <mxCell id="0"/>
                <mxCell id="1" parent="0"/>
                <mxCell id="26" value="" style="shape=doubleArrow;whiteSpace=wrap;html=1;fillColor=#008a00;strokeColor=#005700;fontColor=#ffffff;" parent="1" vertex="1">
                    <mxGeometry x="180" y="50" width="280" height="60" as="geometry"/>
                </mxCell>
                <mxCell id="10" value="" style="shape=singleArrow;direction=north;whiteSpace=wrap;html=1;flipH=1;flipV=1;fillColor=#008a00;strokeColor=#005700;fontColor=#ffffff;" parent="1" vertex="1">
                    <mxGeometry x="295" y="90" width="60" height="140" as="geometry"/>
                </mxCell>
                <mxCell id="21" value="CAN BUS" style="text;html=1;strokeColor=none;fillColor=none;align=center;verticalAlign=middle;whiteSpace=wrap;rounded=0;direction=south;labelPosition=center;verticalLabelPosition=middle;rotation=90;" parent="1" vertex="1">
                    <mxGeometry x="290.63" y="149.38" width="68.75" height="20" as="geometry"/>
                </mxCell>
                <mxCell id="2" value="&lt;br&gt;STM32F4&lt;br&gt;&lt;br&gt;CAN CONTROLLER&lt;br&gt;&lt;br&gt;NODE 1" style="rounded=1;whiteSpace=wrap;html=1;fillColor=#0050ef;strokeColor=#001DBC;fontColor=#ffffff;shadow=1;" parent="1" vertex="1">
                    <mxGeometry x="60" y="30" width="120" height="120" as="geometry"/>
                </mxCell>
                <mxCell id="3" value="ESP32&lt;br&gt;&lt;br&gt;CAN CONTROLLER&lt;br&gt;&lt;br&gt;NODE 2" style="rounded=1;whiteSpace=wrap;html=1;fillColor=#0050ef;strokeColor=#001DBC;fontColor=#ffffff;sketch=0;glass=0;shadow=1;" parent="1" vertex="1">
                    <mxGeometry x="460" y="30" width="120" height="120" as="geometry"/>
                </mxCell>
                <mxCell id="4" value="RPi Zero&lt;br&gt;&lt;br&gt;CAN CONTROLLER&lt;br&gt;&lt;br&gt;NODE 3" style="rounded=1;whiteSpace=wrap;html=1;fillColor=#0050ef;strokeColor=#001DBC;fontColor=#ffffff;shadow=1;" parent="1" vertex="1">
                    <mxGeometry x="265" y="230" width="120" height="120" as="geometry"/>
                </mxCell>
                <mxCell id="12" value="" style="shape=doubleArrow;whiteSpace=wrap;html=1;direction=south;fillColor=#60a917;strokeColor=#2D7600;fontColor=#ffffff;" parent="1" vertex="1">
                    <mxGeometry x="100" y="150" width="40" height="50" as="geometry"/>
                </mxCell>
                <mxCell id="13" value="" style="shape=doubleArrow;whiteSpace=wrap;html=1;direction=south;fillColor=#60a917;strokeColor=#2D7600;fontColor=#ffffff;" parent="1" vertex="1">
                    <mxGeometry x="500" y="150" width="40" height="50" as="geometry"/>
                </mxCell>
                <mxCell id="14" value="" style="shape=doubleArrow;whiteSpace=wrap;html=1;direction=south;fillColor=#60a917;strokeColor=#2D7600;fontColor=#ffffff;" parent="1" vertex="1">
                    <mxGeometry x="305" y="350" width="40" height="50" as="geometry"/>
                </mxCell>
                <mxCell id="15" value="MPU6050" style="rounded=1;whiteSpace=wrap;html=1;fillColor=#f0a30a;strokeColor=#BD7000;fontColor=#000000;shadow=1;" parent="1" vertex="1">
                    <mxGeometry x="60" y="200" width="120" height="60" as="geometry"/>
                </mxCell>
                <mxCell id="16" value="I2C" style="text;html=1;strokeColor=none;fillColor=none;align=center;verticalAlign=middle;whiteSpace=wrap;rounded=0;labelBorderColor=none;labelBackgroundColor=none;fontColor=#000000;fontStyle=1" parent="1" vertex="1">
                    <mxGeometry x="130" y="165" width="40" height="20" as="geometry"/>
                </mxCell>
                <mxCell id="17" value="SD CARD" style="rounded=1;whiteSpace=wrap;html=1;fillColor=#f0a30a;strokeColor=#BD7000;fontColor=#000000;shadow=1;" parent="1" vertex="1">
                    <mxGeometry x="460" y="200" width="120" height="60" as="geometry"/>
                </mxCell>
                <mxCell id="18" value="SPI" style="text;html=1;align=center;verticalAlign=middle;whiteSpace=wrap;rounded=0;labelBackgroundColor=none;fontColor=#000000;fontStyle=1" parent="1" vertex="1">
                    <mxGeometry x="470" y="165" width="40" height="20" as="geometry"/>
                </mxCell>
                <mxCell id="19" value="UART" style="text;html=1;strokeColor=none;fillColor=none;align=center;verticalAlign=middle;whiteSpace=wrap;rounded=0;labelBackgroundColor=none;fontColor=#000000;fontStyle=1" parent="1" vertex="1">
                    <mxGeometry x="340" y="365" width="40" height="20" as="geometry"/>
                </mxCell>
                <mxCell id="11" value="CAN BUS" style="text;html=1;strokeColor=none;align=center;verticalAlign=middle;whiteSpace=wrap;rounded=0;" parent="1" vertex="1">
                    <mxGeometry x="290" y="70" width="60" height="20" as="geometry"/>
                </mxCell>
                <mxCell id="23" value="GPS" style="rounded=1;whiteSpace=wrap;html=1;fillColor=#f0a30a;strokeColor=#BD7000;fontColor=#000000;shadow=1;" parent="1" vertex="1">
                    <mxGeometry x="265" y="400" width="120" height="60" as="geometry"/>
                </mxCell>
            </root>
        </mxGraphModel>
    </diagram>
</mxfile>